<svg width="15" height="15" viewBox="0 0 15 15" fill="none" xmlns="http://www.w3.org/2000/svg">
<path fill-rule="evenodd" clip-rule="evenodd" d="M13.2188 12.6179C13.2188 12.9489 12.9488 13.2189 12.6178 13.2189H1.80276C1.47176 13.2189 1.20176 12.9489 1.20176 12.6179V6.03288H13.2188V12.6179ZM12.6178 1.80288H12.0168V0.599878C12.0168 0.268878 11.7478 -0.00012207 11.4168 -0.00012207H10.8158C10.4838 -0.00012207 10.2148 0.268878 10.2148 0.599878V1.80288H4.20576V0.599878C4.20576 0.268878 3.93676 -0.00012207 3.60476 -0.00012207H3.00476C2.67276 -0.00012207 2.40376 0.268878 2.40376 0.599878V1.80288H1.80276C0.808756 1.80288 -0.000244141 2.61088 -0.000244141 3.60488V12.6179C-0.000244141 13.6119 0.808756 14.4209 1.80276 14.4209H12.6178C13.6118 14.4209 14.4208 13.6119 14.4208 12.6179V3.60488C14.4208 2.61088 13.6118 1.80288 12.6178 1.80288Z" fill="#009FD7"/>
</svg>
