<svg width="31" height="32" viewBox="0 0 31 32" fill="none" xmlns="http://www.w3.org/2000/svg">
<path d="M25.0714 0.714284H5.78571C2.59152 0.714284 0 3.3058 0 6.5V25.7857C0 28.9799 2.59152 31.5714 5.78571 31.5714H16.4732V19.6183H12.4554V14.9576H16.4732V11.5223C16.4732 7.54464 18.9241 5.375 22.4799 5.375C24.1674 5.375 25.6339 5.49553 26.0558 5.5558V9.71428L23.6049 9.73438C21.6562 9.73438 21.2946 10.6384 21.2946 11.9844V14.9576H25.8951L25.2924 19.6183H21.2946V31.5714H25.0714C28.2656 31.5714 30.8571 28.9799 30.8571 25.7857V6.5C30.8571 3.3058 28.2656 0.714284 25.0714 0.714284Z" fill="white"/>
</svg>
