<svg width="14" height="15" viewBox="0 0 14 15" fill="none" xmlns="http://www.w3.org/2000/svg">
<path fill-rule="evenodd" clip-rule="evenodd" d="M11.6278 5.81361C11.1708 5.81361 10.7968 5.44061 10.7968 4.98361C10.7968 4.52661 11.1708 4.15261 11.6278 4.15261C12.0848 4.15261 12.4588 4.52661 12.4588 4.98361C12.4588 5.44061 12.0848 5.81361 11.6278 5.81361ZM1.66176 5.81361H6.64476V1.66161H1.66176V5.81361ZM13.0978 3.51261L13.1098 3.50061L10.0168 0.41561L9.13576 1.29561L10.8888 3.04761C10.1078 3.34661 9.55176 4.09861 9.55176 4.98361C9.55176 6.12861 10.4818 7.05961 11.6278 7.05961C11.9228 7.05961 12.2048 6.99761 12.4588 6.88461V12.8746C12.4588 13.3306 12.0848 13.7046 11.6278 13.7046C11.1708 13.7046 10.7968 13.3306 10.7968 12.8746V9.13561C10.7968 8.21861 10.0538 7.47461 9.13576 7.47461H8.30576V1.66161C8.30576 0.74361 7.56276 0.000610352 6.64476 0.000610352H1.66076C0.743756 0.000610352 -0.000244141 0.74361 -0.000244141 1.66161V14.9506H8.30576V8.72061H9.55176V12.8746C9.55176 14.0196 10.4818 14.9506 11.6278 14.9506C12.7738 14.9506 13.7048 14.0196 13.7048 12.8746V4.98361C13.7048 4.41061 13.4718 3.89061 13.0978 3.51261Z" fill="#009FD7"/>
</svg>
