<svg width="15" height="16" viewBox="0 0 15 16" fill="none" xmlns="http://www.w3.org/2000/svg">
<path fill-rule="evenodd" clip-rule="evenodd" d="M10.922 3.855C10.567 3.855 10.279 3.567 10.279 3.212C10.279 2.857 10.567 2.57 10.922 2.57C11.277 2.57 11.565 2.857 11.565 3.212C11.565 3.567 11.277 3.855 10.922 3.855ZM11.565 10.921H10.279V8.352H7.71V10.921H6.424V8.352H3.213C2.858 8.352 2.57 8.064 2.57 7.709V4.497H3.855V7.067H6.424V4.497H7.71V7.067H10.279V4.497H11.565V10.921ZM10.922 12.849C10.567 12.849 10.279 12.561 10.279 12.207C10.279 11.852 10.567 11.564 10.922 11.564C11.277 11.564 11.565 11.852 11.565 12.207C11.565 12.561 11.277 12.849 10.922 12.849ZM7.067 12.849C6.713 12.849 6.424 12.561 6.424 12.207C6.424 11.852 6.713 11.564 7.067 11.564C7.422 11.564 7.71 11.852 7.71 12.207C7.71 12.561 7.422 12.849 7.067 12.849ZM3.213 2.57C3.567 2.57 3.855 2.857 3.855 3.212C3.855 3.567 3.567 3.855 3.213 3.855C2.858 3.855 2.57 3.567 2.57 3.212C2.57 2.857 2.858 2.57 3.213 2.57ZM7.067 2.57C7.422 2.57 7.71 2.857 7.71 3.212C7.71 3.567 7.422 3.855 7.067 3.855C6.713 3.855 6.424 3.567 6.424 3.212C6.424 2.857 6.713 2.57 7.067 2.57ZM7.067 0C2.576 0 0 2.341 0 6.424C0 10.768 2.839 15.419 7.067 15.419C11.295 15.419 14.134 10.768 14.134 6.424C14.134 2.341 11.558 0 7.067 0Z" fill="#009FD7"/>
</svg>
