<svg width="16" height="13" viewBox="0 0 16 13" fill="none" xmlns="http://www.w3.org/2000/svg">
<path fill-rule="evenodd" clip-rule="evenodd" d="M13.9454 10.2792H13.2434C13.5274 9.67121 13.7084 9.01921 13.7784 8.35221H12.8494V7.06721H13.7784C13.7124 6.43321 13.5454 5.81421 13.2854 5.23221L12.4824 5.69621L11.8394 4.58321L12.6414 4.12021C12.2664 3.60521 11.8134 3.15321 11.2994 2.77721L10.8364 3.58021L9.72337 2.93721L10.1874 2.13321C9.60537 1.87321 8.98637 1.70721 8.35237 1.64021V2.57021H7.06737V1.64021C6.43337 1.70721 5.81437 1.87421 5.23237 2.13321L5.69537 2.93721L4.58337 3.58021L4.12037 2.77721C3.60637 3.15321 3.15337 3.60521 2.77737 4.12021L3.57937 4.58321L2.93737 5.69621L2.13337 5.23221C1.87337 5.81421 1.70737 6.43321 1.64037 7.06721H2.57037V8.35221H1.64037C1.71137 9.01921 1.89137 9.67121 2.17537 10.2792H1.47337C0.0523664 6.83621 1.69237 2.89121 5.13637 1.47021C8.58037 0.0502137 12.5244 1.68921 13.9454 5.13321C14.6254 6.78121 14.6254 8.63221 13.9454 10.2792ZM9.37837 9.31521C8.84037 10.2342 7.65937 10.5422 6.74137 10.0042C5.83137 9.47021 5.51937 8.30421 6.04037 7.38821C6.57137 6.46721 9.63637 5.01321 9.63637 5.01321C9.63637 5.01321 9.91037 8.39521 9.37837 9.31521ZM7.70937 0.000213623C3.45137 0.00121362 -0.000633572 3.45321 0.000366428 7.71221C0.000366428 9.20421 0.433366 10.6642 1.24737 11.9152C1.36537 12.0962 1.56837 12.2072 1.78537 12.2072H13.6334C13.8514 12.2072 14.0534 12.0962 14.1724 11.9152C16.4944 8.34521 15.4824 3.56921 11.9134 1.24721C10.6624 0.433214 9.20137 0.000213623 7.70937 0.000213623Z" fill="#009FD7"/>
</svg>
