<svg width="24" height="24" viewBox="0 0 24 24" fill="none" xmlns="http://www.w3.org/2000/svg">
<path fill-rule="evenodd" clip-rule="evenodd" d="M12.0036 12.6196C14.0037 12.6244 15.6457 10.9851 15.6399 8.98937C15.634 6.98778 14.0032 5.35096 12.0064 5.34246C10.0213 5.3341 8.38068 6.96707 8.35734 8.97462C8.33414 10.9716 9.97786 12.6147 12.0036 12.6196ZM11.9837 22.5975C12.1941 22.5838 12.4045 22.5714 12.6148 22.556C12.8245 22.5406 13.0347 22.5286 13.2435 22.504C15.1195 22.2825 16.801 21.5868 18.3359 20.4861C18.7407 20.1957 18.7887 19.9176 18.6842 19.4784C18.3217 17.9544 17.5672 16.6785 16.3676 15.6706C15.2781 14.7552 14.0138 14.2384 12.6028 14.1154C11.166 13.99 9.80587 14.2837 8.56404 15.0298C6.69426 16.1533 5.58273 17.7988 5.24728 19.958C5.23441 20.0409 5.28594 20.1708 5.35179 20.2236C7.28845 21.7765 9.50419 22.5553 11.9837 22.5975ZM14.8565 13.1715C16.1431 13.6725 17.2359 14.4026 18.1358 15.4103C19.0329 16.4147 19.6508 17.5719 19.9938 18.8887C23.189 15.3917 23.8708 8.94518 19.4874 4.52429C15.1274 0.127212 7.97845 0.40352 3.93524 5.15242C0.0273957 9.74236 1.13029 15.8131 4.00696 18.8781C4.34795 17.5625 4.96604 16.4031 5.86951 15.4026C6.77537 14.3995 7.87174 13.6649 9.15574 13.1755C6.39099 11.1773 6.35736 7.56312 8.36063 5.4785C10.3026 3.45756 13.5974 3.43099 15.5885 5.42826C17.6233 7.46934 17.6466 11.1649 14.8565 13.1715ZM12.7957 24H11.2018C11.1343 23.9849 11.0675 23.9647 10.9992 23.9556C10.5743 23.8992 10.1445 23.869 9.7248 23.7869C7.15548 23.2839 4.96224 22.0819 3.19644 20.1504C0.647744 17.3624 -0.362201 14.0634 0.11438 10.3289C0.409947 8.0129 1.32563 5.93467 2.88786 4.19567C6.15404 0.560035 10.2158 -0.71552 14.9684 0.379477C17.6633 1.00037 19.831 2.5142 21.5236 4.69691C22.7209 6.24089 23.4887 7.97979 23.8147 9.90878C23.8872 10.338 23.9388 10.7708 24 11.202V12.7958C23.9847 12.8714 23.9651 12.9463 23.9549 13.0226C23.8989 13.4394 23.868 13.8611 23.787 14.2729C23.277 16.8651 22.0519 19.0645 20.1058 20.8507C18.3919 22.4238 16.3848 23.4192 14.0879 23.8147C13.6592 23.8885 13.2266 23.9388 12.7957 24Z" fill="#FEFEFE"/>
</svg>
